<svg width="68px" height="68px" xmlns="http://www.w3.org/2000/svg" viewBox="0 0 449.57 451.65"><g id="Layer_2" data-name="Layer 2"><g id="Layer_1-2" data-name="Layer 1"><path d="M348.22,151H308.44a16.12,16.12,0,0,1-12.12-5.5l-16.14-18.22a12.72,12.72,0,0,0-17.95-1,11.91,11.91,0,0,0-1,1l-13.83,15.62a23.79,23.79,0,0,1-17.85,8.1H11.82A225.91,225.91,0,0,0,0,206.73H205.53a13.17,13.17,0,0,0,9.51-4.09l19.19-20a12.72,12.72,0,0,1,9.14-3.87h.75a13,13,0,0,1,9.52,4.24l16.13,18.22a16.1,16.1,0,0,0,12.12,5.5H449.57A222.57,222.57,0,0,0,437.75,151H348.22ZM124.33,323.84a13.26,13.26,0,0,0,9.51-4.09l19.11-20a13,13,0,0,1,9.15-3.87h.82a13,13,0,0,1,9.52,4.24l16.06,18.22a16.25,16.25,0,0,0,12.12,5.5H427.93a223.06,223.06,0,0,0,18.59-56.14H228.28a16.21,16.21,0,0,1-12.05-5.43L200.1,244.06a12.73,12.73,0,0,0-9.52-4.32,12.39,12.39,0,0,0-9.44,4.32l-13.83,15.61a23.93,23.93,0,0,1-17.92,8H3.05A223.14,223.14,0,0,0,21.56,324ZM285.61,90.14a13.35,13.35,0,0,0,9.59-4.09l19.11-19.93a12.62,12.62,0,0,1,9.15-3.94h.82a12.42,12.42,0,0,1,9.44,4.31l16.13,18.22A16.49,16.49,0,0,0,362,90.14h43.2C330.35-9.49,188.93-29.6,89.3,45.22A225.68,225.68,0,0,0,44.39,90.14ZM198.76,379.61H139.64a16,16,0,0,1-12-5.5l-16.06-18.22a12.78,12.78,0,0,0-18.06-1,11.21,11.21,0,0,0-1,1L78.6,371.8a23.73,23.73,0,0,1-17.85,8.11h-.89C144.79,471,287.5,476,378.61,391.09q5.77-5.4,11.18-11.18Z"/></g></g></svg>
