<svg width="68px" height="68px" viewBox="0 0 172 239" fill="none" xmlns="http://www.w3.org/2000/svg">
<rect width="172" height="238" fill="white"/>
<path fill-rule="evenodd" clip-rule="evenodd" d="M11.6215 196.837C19.0403 209.388 29.8244 219.833 42.8692 227.101C55.9139 234.369 70.7501 238.2 85.858 238.2C100.966 238.2 115.802 234.369 128.847 227.101C141.892 219.833 152.676 209.388 160.095 196.837C167.708 184.262 171.716 169.997 171.716 155.477C171.716 140.956 167.708 126.691 160.095 114.116L94.8022 4.9829C93.9082 3.47084 92.6089 2.21258 91.0372 1.337C89.4656 0.461421 87.6781 0 85.858 0C84.0378 0 82.2504 0.461421 80.6788 1.337C79.1071 2.21258 77.8078 3.47084 76.9138 4.9829L11.6215 114.116C4.00813 126.691 0 140.956 0 155.477C0 169.997 4.00813 184.262 11.6215 196.837ZM67.4651 56.9027L81.3859 33.6336C81.8329 32.8775 82.4826 32.2484 83.2684 31.8106C84.0542 31.3728 84.9479 31.1421 85.858 31.1421C86.7681 31.1421 87.6618 31.3728 88.4476 31.8106C89.2334 32.2484 89.8831 32.8775 90.3301 33.6336L143.885 123.149C148.693 131.086 151.673 139.908 152.629 149.028C153.584 158.149 152.492 167.359 149.426 176.046C148.76 173.085 147.843 170.18 146.686 167.36C139.288 149.344 122.562 135.441 96.9614 126.037C79.3609 119.594 68.1258 110.118 63.5606 97.8695C57.6811 82.0881 63.8223 64.8747 67.4651 56.9027ZM43.7272 96.5802L27.8308 123.149C21.8792 132.978 18.7459 144.129 18.7459 155.479C18.7459 166.83 21.8792 177.98 27.8308 187.81C32.6417 195.937 39.27 202.956 47.2449 208.366C55.2198 213.776 64.3458 217.445 73.975 219.114C83.6041 220.782 93.5003 220.408 102.961 218.018C112.421 215.629 121.214 211.282 128.716 205.287C132.861 195.181 133.009 183.981 129.132 173.778C123.7 160.761 110.621 150.37 90.2608 142.886C67.2466 134.461 52.2961 121.309 45.829 103.806C44.958 101.445 44.2558 99.0313 43.7272 96.5802Z" fill="black"/>
</svg>
